<?xml version="1.0" encoding="UTF-8" standalone="no"?>
<svg
   xmlns:dc="http://purl.org/dc/elements/1.1/"
   xmlns:cc="http://creativecommons.org/ns#"
   xmlns:rdf="http://www.w3.org/1999/02/22-rdf-syntax-ns#"
   xmlns:svg="http://www.w3.org/2000/svg"
   xmlns="http://www.w3.org/2000/svg"
   xmlns:sodipodi="http://sodipodi.sourceforge.net/DTD/sodipodi-0.dtd"
   xmlns:inkscape="http://www.inkscape.org/namespaces/inkscape"
   height="20"
   width="20"
   id="svg2"
   version="1.1"
   inkscape:version="0.48.4 r9939"
   sodipodi:docname="flickr.svg">
  <metadata
     id="metadata10">
    <rdf:RDF>
      <cc:Work
         rdf:about="">
        <dc:format>image/svg+xml</dc:format>
        <dc:type
           rdf:resource="http://purl.org/dc/dcmitype/StillImage" />
        <dc:title />
      </cc:Work>
    </rdf:RDF>
  </metadata>
  <defs
     id="defs8" />
  <sodipodi:namedview
     pagecolor="#ffffff"
     bordercolor="#666666"
     borderopacity="1"
     objecttolerance="10"
     gridtolerance="10"
     guidetolerance="10"
     inkscape:pageopacity="0"
     inkscape:pageshadow="2"
     inkscape:window-width="1309"
     inkscape:window-height="744"
     id="namedview6"
     showgrid="false"
     inkscape:zoom="10.680141"
     inkscape:cx="-15.18273"
     inkscape:cy="8.85915"
     inkscape:window-x="57"
     inkscape:window-y="24"
     inkscape:window-maximized="1"
     inkscape:current-layer="svg2"
     fit-margin-top="0"
     fit-margin-left="0"
     fit-margin-right="0"
     fit-margin-bottom="0" />
  <path
     d="M 16.25,0 Q 17.79948,0 18.899736,1.100264 20,2.20052 20,3.75 v 12.5 q 0,1.54948 -1.100264,2.649736 Q 17.79948,20 16.25,20 H 3.75 Q 2.20052,20 1.100264,18.899736 0,17.79948 0,16.25 V 3.75 Q 0,2.20052 1.100264,1.100264 2.20052,0 3.75,0 h 12.5 z M 9.088544,10 q 0,-1.145832 -0.807296,-1.953128 Q 7.47396,7.239584 6.328128,7.239584 5.182288,7.239584 4.375,8.046872 3.567712,8.854168 3.567712,10 q 0,1.145832 0.807288,1.953128 0.807288,0.807288 1.953128,0.807288 1.145832,0 1.95312,-0.807288 Q 9.088544,11.145832 9.088544,10 z m 7.343744,0 q 0,-1.145832 -0.807288,-1.953128 -0.807288,-0.807288 -1.953128,-0.807288 -1.145832,0 -1.95312,0.807288 Q 10.911456,8.854168 10.911456,10 q 0,1.145832 0.807296,1.953128 0.807288,0.807288 1.95312,0.807288 1.14584,0 1.953128,-0.807288 Q 16.432288,11.145832 16.432288,10 z"
     id="path4"
     inkscape:connector-curvature="0" />
</svg>
